<svg width="799" height="397" viewBox="0 0 799 397" fill="none" xmlns="http://www.w3.org/2000/svg">
<path d="M660.101 0.5L651.997 28.8647H579.349L571.245 84.7258H634.631L630.868 113.09H567.482L559.378 171.846H637.236L633.184 200.5H517.41L545.485 0.5H660.101Z" fill="#ED6337"/>
<path d="M342.166 200.5L370.241 0.5H408.157L380.082 200.5H342.166ZM452.151 200.5L396.579 93.6983L477.332 0.5H519.011L437.1 93.6983L496.145 200.5H452.151Z" fill="#ED6337"/>
<path d="M323.926 0.5L295.851 200.5H257.935L286.01 0.5H323.926Z" fill="#ED6337"/>
<path d="M221.057 200.5H184.298L190.955 115.985C193.271 83.761 196.165 56.1681 199.639 33.2062L143.488 178.792H107.309L89.0742 33.7851C87.7235 56.747 83.5749 85.0152 76.6284 118.59L60.7095 200.5H23.9512L67.6559 0.5H114.255L130.463 142.034L182.851 0.5H233.503L221.057 200.5Z" fill="#ED6337"/>
<path d="M798.155 196.29L717.403 320.458L706.693 396.29H668.488L679.197 320.747L633.177 196.29H673.408L702.352 289.199L757.345 196.29H798.155Z" fill="#EEEEEE"/>
<path d="M576.396 196.29L552.662 365.031H631.388L622.995 396.29H510.404L538.48 196.29H576.396Z" fill="#EEEEEE"/>
<path d="M448.981 396.29L443.192 349.98H377.201L358.677 396.29H319.313L409.039 196.29H455.348L488.633 396.29H448.981ZM388.778 321.037H439.719L427.852 224.076L388.778 321.037Z" fill="#EEEEEE"/>
<path d="M335.395 196.29L327.291 224.655H254.642L246.538 280.516H309.925L306.162 308.88H242.775L234.671 367.636H312.529L308.477 396.29H192.703L220.778 196.29H335.395Z" fill="#EEEEEE"/>
<path d="M38.1266 396.29H0.5L28.5752 196.29H66.4913L54.9139 276.464H125.247L136.535 196.29H174.451L146.376 396.29H108.459L120.905 306.854H50.8618L38.1266 396.29Z" fill="#EEEEEE"/>
</svg>
